# xmcd CD database file
#
# Track frame offsets:
#	150
#	20999
#	43326
#	66523
#	91338
#	112862
#	128304
#	144831
#	159356
#	176185
#
# Disc length: 2598 seconds
#
# Revision: 1
# Processed by: cddbd v1.5PL3 Copyright (c) Steve Scherf et al.
# Submitted via: CDex 1.51
#
DISCID=840a240a
DTITLE=???? - JUNKO THE BEST
DYEAR=1900
DGENRE=Pop
TTITLE0=?????????
TTITLE1=?????
TTITLE2=Be My Best Friend
TTITLE3=????????
TTITLE4=????
TTITLE5=??????
TTITLE6=?????
TTITLE7=?????????
TTITLE8=?????????
TTITLE9=??????? -You Oughta Know By Now
EXTD=
EXTT0=
EXTT1=
EXTT2=
EXTT3=
EXTT4=
EXTT5=
EXTT6=
EXTT7=
EXTT8=
EXTT9=
PLAYORDER=
